<?xml version="1.0" standalone="no"?>
<!DOCTYPE svg PUBLIC "-//W3C//DTD SVG 1.1//EN" "http://www.w3.org/Graphics/SVG/1.1/DTD/svg11.dtd" >
<svg xmlns="http://www.w3.org/2000/svg">
<metadata>Generated by IcoMoon</metadata>
<defs>
<font id="icomoon" horiz-adv-x="1024">
<font-face units-per-em="1024" ascent="960" descent="-64" />
<missing-glyph horiz-adv-x="1024" />
<glyph unicode="&#x20;" horiz-adv-x="512" d="" />
<glyph unicode="&#xe900;" glyph-name="shalou" d="M938.654 256.654h-255.975c-10.629 0-21.346 10.617-21.346 21.322 0 10.617 10.629 21.322 21.346 21.322h255.975c10.629 0 21.346-10.617 21.346-21.322s-10.629-21.322-21.346-21.322v0zM938.654 384.499h-255.975c-10.629 0-21.346 10.617-21.346 21.322 0 10.617 10.629 21.322 21.346 21.322h255.975c10.629 0 21.346-10.617 21.346-21.322s-10.629-21.322-21.346-21.322v0zM765.34 685.465c-2.635-2.632-253.34-237.088-253.34-237.088v-404.857l-170.679 85.201v319.656l-245.346 229.103c-2.635 2.632-5.358 5.352-7.994 5.352-15.987 15.97-23.981 37.292-23.981 61.246 0 47.909 39.969 87.921 88.019 87.921h549.371c47.962 0 88.019-39.924 88.019-87.921-0.088-23.954-10.717-45.277-24.069-58.614zM701.302 784.003h-549.283c-21.346 0-39.969-18.69-39.969-39.924 0-10.617 2.635-21.322 10.629-26.675l2.635-2.632 237.352-223.751 15.987-13.337 2.635-26.675-2.635-284.997 85.296-42.644v354.316l15.987 13.337 242.711 223.751c7.994 7.985 10.629 15.97 10.629 26.675 8.082 23.954-10.629 42.557-31.975 42.557v0zM682.679 171.365h255.975c10.629 0 21.346-10.617 21.346-21.322s-10.629-21.322-21.346-21.322h-255.975c-10.629 0-21.346 10.617-21.346 21.322 0 13.337 7.994 21.322 21.346 21.322v0z" />
<glyph unicode="&#xe901;" glyph-name="close" d="M511.744 90.335c-170.256 0.069-316.911 120.033-350.729 286.896s54.558 334.46 211.353 400.811c182.138 76.945 392.167-8.33 469.112-190.468s-8.33-392.167-190.468-469.112c-44.059-18.645-91.426-28.212-139.268-28.127zM511.744 412.62l107.846-108.061c7.151-7.299 18.014-9.53 27.462-5.64s15.593 13.122 15.533 23.34c0.096 6.688-2.484 13.138-7.166 17.915l-108.168 108.061 108.168 108.348c6.349 6.4 8.801 15.702 6.433 24.4s-9.197 15.473-17.915 17.771c-8.717 2.298-17.999-0.229-24.348-6.629l-107.846-108.24-107.882 108.168c-9.845 9.662-25.625 9.624-35.423-0.086s-9.979-25.489-0.406-35.421l108.24-108.312-108.061-108.276c-7.328-7.178-9.547-18.095-5.601-27.564s13.259-15.581 23.516-15.434c6.73-0.055 13.195 2.621 17.915 7.419l107.846 108.133-0.143 0.107z" />
<glyph unicode="&#xe902;" glyph-name="look" d="M510.563 604.535c49.051 0 108.603-24.798 167.683-69.823 43.855-33.424 73.429-67.369 85.544-84.867-12.097-17.304-42.234-51.283-87.682-85.176-59.694-44.518-118.485-69.031-165.544-69.031-47.816 0-106.902 24.805-166.374 69.847-44.16 33.445-74.079 67.185-86.561 84.78 12.295 17.616 41.744 51.287 85.256 84.447 59.076 45.028 118.628 69.823 167.679 69.823M510.563 652.587c-149.376 0-305.464-169.894-305.464-202.499s159.445-202.499 305.464-202.499c142.662 0 305.464 166.461 305.464 202.499 0 32.605-156.089 202.499-305.464 202.499zM510.563 494.707c24.6 0 44.619-20.015 44.619-44.619s-20.018-44.619-44.619-44.619c-24.6 0-44.619 20.015-44.619 44.619s20.018 44.619 44.619 44.619M510.563 542.758c-51.179 0-92.67-41.488-92.67-92.67s41.491-92.67 92.67-92.67c51.179 0 92.67 41.488 92.67 92.67s-41.491 92.67-92.67 92.67z" />
<glyph unicode="&#xe903;" glyph-name="hidden" d="M810.682 549.964l42.238-42.238-9.198-9.21 0.186-0.161-10.221-9.823-23.005-23.044-1.531 1.49c-16.676-13.537-34.241-25.8-52.543-36.725l55.63-66.299-45.758-38.396-64.579 76.944c-25.731-10.901-52.48-19.386-79.9-25.31l28.092-77.29-56.131-20.43-32.368 88.938c-11.433-0.87-22.934-1.302-34.481-1.288-17.020-0.021-33.941 0.93-50.689 2.822l-33.494-91.966-56.131 20.43 29.984 82.416c-29.781 7.554-58.676 18.154-86.227 31.611l-72.949-86.864-45.758 38.396 66.099 78.756c-11.366 7.617-22.407 15.772-33.082 24.451l-1.669-1.676-42.238 42.238 42.238 42.238 9.413-9.415c72.732-72.909 171.521-113.828 274.505-113.702 102.524 0 195.764 39.732 265.149 104.652l18.421 18.458z" />
<glyph unicode="&#xe904;" glyph-name="clock" d="M115.433 588.77c-8.51 0-16.968 3.415-23.219 10.191-25.952 28.126-40.34 65.006-40.292 103.276 0 84.102 68.448 152.551 152.551 152.551 40.817 0 79.217-15.917 108.057-44.862 12.292-12.345 12.24-32.307-0.053-44.599s-32.307-12.24-44.599 0.053c-16.763 16.903-39.6 26.382-63.405 26.318-49.327 0-89.513-40.134-89.513-89.513 0-22.536 8.405-44.021 23.639-60.568 8.478-9.197 10.711-22.539 5.689-33.995s-16.347-18.855-28.855-18.852v0zM894.208 586.616c-8.142 0-16.285 3.152-22.483 9.403-12.19 12.427-12.025 32.375 0.368 44.599 17.283 16.968 26.791 39.609 26.791 63.825 0 49.327-40.134 89.513-89.513 89.513-24.795 0-47.803-9.928-64.929-27.947-11.977-12.66-31.939-13.133-44.546-1.156-12.613 11.985-13.13 31.923-1.156 44.546 29.102 30.678 68.396 47.593 110.683 47.593 84.102 0 152.551-68.448 152.551-152.551 0-41.184-16.18-79.847-45.597-108.74-5.902-5.834-13.869-9.1-22.168-9.088v0zM673.209 356.897h-180.392c-17.388 0-31.519 14.131-31.519 31.519v221.366c0 17.388 14.131 31.519 31.519 31.519s31.519-14.131 31.519-31.519v-189.848h148.873c17.388 0 31.519-14.131 31.519-31.519s-14.078-31.519-31.519-31.519zM776.328 118.353c73.176 71.232 118.773 170.674 118.773 280.569 0 216.008-175.769 391.778-391.778 391.778s-391.778-175.769-391.778-391.778c0-110 45.65-209.494 118.931-280.727l-71.39-69.236c-12.502-12.135-12.818-32.097-0.683-44.546 5.941-6.121 14.111-9.57 22.641-9.561 7.88 0 15.812 2.942 21.958 8.878l76.38 74.069c63.51-44.441 140.731-70.602 223.941-70.602 83.314 0 160.588 26.213 224.151 70.76l76.538-74.227c5.882-5.708 13.761-8.894 21.958-8.878 8.247 0 16.442 3.204 22.641 9.561 5.826 5.993 9.028 14.058 8.9 22.415s-3.576 16.32-9.583 22.132l-71.6 69.394zM174.583 398.922c0 181.233 147.455 328.74 328.74 328.74s328.74-147.455 328.74-328.74c0-181.285-147.455-328.74-328.74-328.74s-328.74 147.508-328.74 328.74z" />
<glyph unicode="&#xe905;" glyph-name="lock" d="M729.464 492.384c33.024 0 59.787-26.763 59.787-59.787v-279.078c0-33.024-26.763-59.787-59.751-59.787h-438.581c-33.005 0.020-59.751 26.782-59.751 59.787v279.078c0 32.988 26.727 59.751 59.751 59.751h438.51zM729.428 552.171h-438.474c-66.045-0.020-119.574-53.565-119.574-119.61v-279.006c0-66.045 53.529-119.59 119.574-119.61h438.51c66.045 0 119.59 53.529 119.61 119.574v279.078c-0.020 66.045-53.565 119.574-119.61 119.574h-0.036zM510.209 771.426c37.005 0.009 72.497-14.684 98.667-40.847s40.872-61.651 40.872-98.656v-79.788h-279.042v79.788c0.040 77.031 62.507 139.451 139.539 139.431zM510.245 831.177c-110.057-0.020-199.27-89.233-199.29-199.29v-139.539h398.616v139.539c0 52.864-21 103.564-58.381 140.945s-88.080 58.381-140.945 58.381v-0.036zM510.245 203.324c-16.5 0-29.876 13.376-29.876 29.876v119.61c0.003 16.498 13.378 29.871 29.876 29.871s29.873-13.373 29.876-29.871v-119.574c0-16.5-13.376-29.876-29.876-29.876v-0.036z" />
<glyph unicode="&#xe906;" glyph-name="scan" d="M91.053 580.013c-24.908 0-39.853 14.945-39.853 34.871v164.394c0 69.743 54.798 124.541 124.541 124.541h159.412c19.926 0 39.853-14.945 39.853-39.853s-19.926-34.871-39.853-34.871h-159.412c-29.89 0-49.816-24.908-49.816-49.816v-164.394c0-19.926-14.945-34.871-34.871-34.871zM843.278-17.782h-159.412c-19.926 0-39.853 14.945-39.853 39.853 0 19.926 14.945 39.853 39.853 39.853h159.412c29.89 0 49.816 24.908 49.816 49.816v164.394c0 19.926 14.945 39.853 39.853 39.853s39.853-14.945 39.853-39.853v-164.394c-4.982-69.743-59.779-129.522-129.522-129.522zM932.947 580.013c-19.926 0-39.853 14.945-39.853 39.853v159.412c0 29.89-24.908 49.816-49.816 49.816h-164.394c-19.926 0-39.853 14.945-39.853 39.853s14.945 39.853 39.853 39.853h164.394c69.743 0 124.541-54.798 124.541-124.541v-159.412c0-24.908-14.945-44.835-34.871-44.835v0zM340.134-12.8h-164.394c-69.743 0-124.541 54.798-124.541 124.541v159.412c0 19.926 14.945 39.853 39.853 39.853s39.853-14.945 39.853-39.853v-159.412c0-29.89 24.908-49.816 49.816-49.816h164.394c19.926 0 39.853-14.945 39.853-39.853-9.963-19.926-24.908-34.871-44.835-34.871zM932.947 405.656h-846.876c-19.926 0-29.89 14.945-29.89 29.89v9.963c0 19.926 14.945 29.89 29.89 29.89h846.876c19.926 0 29.89-14.945 29.89-29.89v-9.963c0-14.945-14.945-29.89-29.89-29.89z" />
<glyph unicode="&#xe907;" glyph-name="message" d="M266.667-12.8h245.653c125.949 0 244.613 49.963 332.049 141.563s133.236 211.304 128.031 337.253c-9.368 239.408-202.976 433.016-442.384 442.384-125.949 5.205-246.694-40.595-337.253-128.031s-141.563-205.058-141.563-332.049c0-122.827 47.882-238.367 135.318-325.803v-55.168c0-43.718 36.432-80.15 80.15-80.15zM512.321 826.169h14.573c195.69-7.286 354.948-166.545 362.235-362.235 4.164-104.090-33.309-202.976-105.131-276.881-71.822-74.945-168.627-115.54-271.676-115.54h-242.531v53.086c0 20.818-8.327 41.636-23.941 57.25-71.822 71.822-111.377 166.545-111.377 267.512 0 103.050 40.595 199.854 115.54 271.676 71.822 67.659 164.463 105.131 262.308 105.131zM762.138 472.261c0-18.594-9.92-35.776-26.023-45.072s-35.942-9.297-52.045 0c-16.103 9.297-26.023 26.479-26.023 45.072s9.92 35.776 26.023 45.072c16.103 9.297 35.942 9.297 52.045 0s26.023-26.479 26.023-45.072v0zM564.366 472.261c0-28.744-23.301-52.045-52.045-52.045s-52.045 23.301-52.045 52.045c0 18.594 9.92 35.776 26.023 45.072s35.942 9.297 52.045 0c16.103-9.297 26.023-26.479 26.023-45.072zM366.594 472.261c0-28.744-23.301-52.045-52.045-52.045s-52.045 23.301-52.045 52.045c0 28.744 23.301 52.045 52.045 52.045s52.045-23.301 52.045-52.045z" />
<glyph unicode="&#xe908;" glyph-name="network" d="M852.866 430.637c3.687 70.892-14.517 140.018-52.613 200.081l-0.154 0.154-0.307 0.538c-0.307 0.384-0.538 0.845-0.845 1.306-29.417 45.7-69.664 84.026-116.44 110.985-42.321 24.348-90.095 39.479-138.867 44.164l-0.154 0.154-9.447 0.614h-0.538c-37.251 2.381-74.349-1.306-110.295-10.983l-9.294-2.535-0.154-0.307c-30.492-9.14-59.449-22.581-86.485-39.863-53.074-34.179-95.548-82.183-122.815-138.866v-0.077c-24.348-50.616-35.869-106.992-33.488-163.060h-0.077c2.535-60.14 21.276-118.82 53.995-169.742 27.036-41.936 61.907-76.653 103.69-103.228 37.712-23.887 78.958-39.939 122.891-47.85l0.077-0.154 7.22-1.075c0.768-0.154 1.459-0.23 2.227-0.384h0.077c16.821-2.611 33.872-3.84 50.923-3.84 33.565 0 67.206 4.916 99.158 14.67l9.524 2.919 0.077 0.154c26.575 8.986 52.075 21.199 75.962 36.483 46.315 29.878 85.025 70.739 112.062 118.359 24.732 43.703 39.709 92.936 43.55 143.014l0.154 0.23 0.384 8.141zM804.094 441.39c-31.26-36.099-68.589-65.746-111.217-88.251 4.992 54.763 1.997 109.373-8.986 163.368l0.307 0.154-0.077 0.307c0.614 0.307 1.152 0.614 1.767 0.998 31.798 16.513 61.215 36.637 87.714 60.14 21.199-42.474 31.645-89.096 30.492-136.716v0zM324.203 499.532c-2.765-50.001 1.075-99.541 11.444-148.083-44.164 22.812-83.566 53.995-115.825 91.784-0.538 35.254 5.376 70.432 17.205 103.535 27.036-18.818 56.146-34.563 86.869-46.852v-0.307l0.307-0.077zM392.254 327.793c-14.517 50.769-21.045 103.074-19.509 155.994 36.867-9.908 74.58-14.977 112.83-14.977 5.761 0 11.521 0.077 17.128 0.461 46.391 1.843 91.631 10.983 134.95 27.266 10.062-54.917 11.060-110.678 2.919-166.286-80.033-28.265-167.286-29.11-248.317-2.458v0zM747.564 620.733c-22.965-21.275-48.465-39.632-76.116-54.917-17.512 58.45-44.318 113.136-79.956 163.214 23.273-6.605 45.7-15.976 66.515-27.958 35.408-20.431 65.516-47.39 89.557-80.34zM520.445 739.937c5.3-6.068 10.523-12.289 15.438-18.587 41.86-53.073 72.275-112.445 90.556-176.655-79.879-31.491-167.209-35.331-249.777-10.983 8.986 70.201 32.489 138.329 68.666 198.699 24.578 5.76 49.771 8.295 75.117 7.527zM353.851 693.622c7.22 4.608 14.593 8.91 22.197 12.904-22.889-49.156-38.634-101.692-46.622-155.456-25.27 11.214-49.233 24.962-71.507 41.245 23.196 40.861 56.069 75.654 95.932 101.308zM266.214 289.85c-14.363 22.351-25.577 46.391-33.334 71.507 35.638-29.955 76.039-54.149 119.742-71.43 13.518-40.093 31.414-78.343 53.535-114.365-17.819 6.913-34.87 15.592-51.23 25.961-35.715 22.658-65.593 52.382-88.712 88.328zM477.894 157.82c-26.806 35.101-48.849 72.966-65.67 113.29 71.738-17.051 146.471-15.669 217.364 4.148-9.908-38.096-24.041-74.81-42.321-109.603-35.408-9.447-72.813-12.135-109.373-7.834v0zM670.066 202.291c-5.3-3.379-10.676-6.605-16.129-9.678 13.364 32.873 23.503 66.899 30.492 101.922 9.754 4.224 19.432 8.756 28.803 13.672 27.727 14.44 53.535 31.491 77.191 51.076-6.145-19.432-14.286-38.173-24.348-55.762-23.196-40.707-56.376-75.731-96.009-101.231v0z" />
<glyph unicode="&#xe909;" glyph-name="account" d="M641.787 446.473c54.107 38.895 89.207 101.494 89.207 171.939 0 117.77-98.282 213.588-219.080 213.588s-219.080-95.818-219.080-213.588c0-70.445 35.186-133.044 89.207-171.939-123.966-49.912-211.375-169.017-211.375-307.653 0-18.446 15.324-33.386 34.245-33.386s34.245 14.94 34.245 33.386c0 146.732 122.425 266.004 272.844 266.004s272.844-119.356 272.844-266.004c0-18.446 15.324-33.386 34.245-33.386s34.245 14.94 34.245 33.386c-0.086 138.636-87.581 257.741-211.546 307.653zM361.238 618.412c0 81.045 67.633 146.899 150.676 146.899s150.676-65.938 150.676-146.899c0-80.961-67.633-146.899-150.676-146.899s-150.676 65.938-150.676 146.899z" />
<glyph unicode="&#xe90a;" glyph-name="gongyingshang" d="M619.91-25.248l-469.019 0.114c-83.219 0-150.891 71.787-150.891 159.921v60.356c0 74.874 27.32 145.633 76.931 199.244 50.297 54.298 117.169 84.247 188.271 84.247h51.554c13.374 0 26.292-5.601 35.322-15.432l83.676-90.534 84.247 90.649c9.031 9.716 21.948 15.318 35.208 15.318h51.326c7.316 0 14.746-0.343 21.948-0.914 6.401-0.572 12.803-1.372 19.090-2.401 10.288-1.715 20.462-4.115 30.407-7.087 12.003-3.658 23.891-8.23 35.322-13.603 1.372-0.686 2.629-1.257 4.001-1.943 18.061-8.916 25.491-30.864 16.575-49.040-8.916-18.061-30.864-25.491-49.040-16.575-0.914 0.457-1.943 0.914-2.858 1.372-8.116 3.887-16.575 7.087-25.148 9.716-7.087 2.058-14.289 3.772-21.491 5.030-4.458 0.686-8.916 1.372-13.374 1.715-5.144 0.457-10.288 0.686-15.546 0.686h-40.123l-95.221-102.423c-9.031-9.716-21.948-15.318-35.208-15.318h-0.114c-13.374 0-26.177 5.601-35.322 15.432l-94.65 102.309h-40.695c-105.967 0-192.043-94.307-192.043-210.333v-60.356c0-47.896 34.865-86.762 77.732-86.762l469.019-0.114c20.233 0 36.58-16.347 36.58-36.58 0.114-20.347-16.347-36.694-36.465-36.694v0zM437.926 886.841c41.266 0 80.018-16.004 109.167-45.153s45.153-67.901 45.153-109.167c0-41.266-16.004-80.018-45.153-109.167s-67.901-45.153-109.167-45.153c-41.266 0-80.018 16.004-109.167 45.153s-45.153 67.901-45.153 109.167c0 41.266 16.004 80.018 45.153 109.167 29.149 29.035 67.901 45.153 109.167 45.153zM437.926 960c-125.628 0-227.479-101.851-227.479-227.479s101.851-227.479 227.479-227.479c125.628 0 227.479 101.851 227.479 227.479s-101.851 227.479-227.479 227.479zM767.829 393.474c53.155 0 103.109-20.69 140.717-58.299s58.299-87.562 58.299-140.717c0-53.155-20.69-103.109-58.299-140.717s-87.562-58.299-140.717-58.299c-53.155 0-103.109 20.69-140.717 58.299s-58.299 87.562-58.299 140.717c0 53.155 20.69 103.109 58.299 140.717s87.562 58.299 140.717 58.299zM767.829 450.629c-141.517 0-256.171-114.654-256.171-256.171s114.654-256.171 256.171-256.171c141.517 0 256.171 114.654 256.171 256.171s-114.768 256.171-256.171 256.171zM730.106 318.6c-7.43-19.89-16.918-40.466-27.32-60.356v-208.618h-42.524v143.232c-4.115-5.373-8.573-10.402-12.803-14.86-3.887 10.745-15.432 34.751-22.634 45.496 25.606 25.834 50.183 66.872 64.472 107.91l40.809-12.803zM802.922 119.698c-15.203-26.177-39.78-52.583-61.271-68.93-7.773 7.773-24.12 21.148-33.608 27.092 21.376 13.031 42.524 34.179 54.412 54.641l40.466-12.803zM910.832 183.941v-42.181h-194.1v42.181h36.808v51.44h-29.721v41.266h29.721v53.155h42.181v-53.155h34.522v53.841h42.181v-53.841h36.237v-41.266h-36.237v-51.44h38.409zM795.835 183.941h34.522v51.44h-34.522v-51.44zM860.878 133.073c18.747-18.404 38.637-43.095 49.040-60.013l-36.237-22.862c-8.916 17.49-29.378 44.581-47.211 63.9l34.408 18.976z" />
<glyph unicode="&#xe90b;" glyph-name="contract" d="M691.506 903.111c44.505 0 87.187-17.679 118.656-49.149s49.149-74.151 49.149-118.656v-235.886c0-25.155-20.392-45.547-45.547-45.547s-45.547 20.392-45.547 45.547v235.886c0.002 42.484-34.229 77.035-76.711 77.43h-409.924c-42.763 0-77.43-34.667-77.43-77.43v-573.893c0-42.763 34.667-77.43 77.43-77.43h153.901c25.155 0 45.547-20.392 45.547-45.547s-20.392-45.547-45.547-45.547h-153.901c-92.676 0-167.805 75.129-167.805 167.805v574.612c0 92.676 75.129 167.805 167.805 167.805h409.924zM668.373 417.342c11.988 0 22.964-6.725 28.407-17.407l31.164-88.937 95.889-3.836c11.843-2.146 21.63-10.47 25.65-21.815 3.271-11.777-0.023-24.403-8.63-33.082l-77.43-55.615 27.328-93.731c1.592-8.417-0.324-17.118-5.302-24.089s-12.589-11.604-21.067-12.828h-1.918v0.24c-5.303-0.243-10.558 1.092-15.102 3.836l-78.629 56.814-78.389-56.814c-10.787-6.177-24.203-5.41-34.216 1.957s-14.738 19.947-12.050 32.083l27.328 92.532-76.471 55.615c-6.12 5.997-9.57 14.205-9.57 22.774s3.449 16.777 9.57 22.774c4.887 4.894 11.166 8.16 17.979 9.349l95.889 3.836 31.164 88.937c5.443 10.681 16.418 17.407 28.407 17.407zM395.45 414.079c28.029 0 43.121-12.936 45.278-38.809l0.27-6.738c0-30.365-15.182-45.547-45.547-45.547h-45.547c-28.029 0-43.121 12.936-45.278 38.809l-0.27 6.738c0 30.365 15.182 45.547 45.547 45.547h45.547zM486.545 573.494c28.029 0 43.121-12.936 45.278-38.809l0.27-6.738c0-30.365-15.182-45.547-45.547-45.547h-136.641c-28.029 0-43.121 12.936-45.278 38.809l-0.27 6.738c0 30.365 15.182 45.547 45.547 45.547h136.641zM623.186 732.909c28.029 0 43.121-12.936 45.278-38.809l0.27-6.738c0-30.365-15.182-45.547-45.547-45.547h-273.282c-28.029 0-43.121 12.936-45.278 38.809l-0.27 6.738c0 30.365 15.182 45.547 45.547 45.547h273.282z" />
<glyph unicode="&#xe90c;" glyph-name="business" d="M98.431-7.111c-22.308-0.109-40.676 19.3-41.513 43.867s16.158 45.44 38.411 47.173l3.102 0.114 41.357 0.023v608.246c0.001 34.515 17.691 66.069 45.699 81.514l3.867 2.005 248.141 119.639c24.782 11.946 53.299 9.783 76.362-5.792s37.76-42.593 39.354-72.35l0.145-5.378v-124.698l272.811-93.934c33.026-11.368 56.141-44.188 57.941-82.266l0.103-4.74v-422.27h41.357c22.308 0.11 40.676-19.299 41.513-43.866s-16.158-45.44-38.411-47.173l-3.102-0.115h-827.137zM470.643 811.952l-248.141-119.639v-608.246h248.141v727.886zM553.357 591.77v-507.704h248.141v422.247l-248.141 85.457zM367.251 334.717c22.308 0.11 40.676-19.299 41.513-43.867s-16.158-45.44-38.411-47.173l-3.102-0.114h-41.357c-22.308-0.11-40.676 19.299-41.513 43.867s16.158 45.44 38.411 47.173l3.102 0.114h41.357zM698.106 334.717c22.308 0.11 40.676-19.299 41.513-43.867s-16.158-45.44-38.411-47.173l-3.102-0.114h-41.357c-22.308-0.11-40.676 19.299-41.513 43.867s16.158 45.44 38.411 47.173l3.102 0.114h41.357zM367.251 517.024c22.308 0.11 40.676-19.299 41.513-43.867s-16.158-45.44-38.411-47.173l-3.102-0.114h-41.357c-22.308-0.11-40.676 19.299-41.513 43.867s16.158 45.44 38.411 47.173l3.102 0.114h41.357z" />
<glyph unicode="&#xe90d;" glyph-name="approve" d="M512 903.111c128.577 0 232.814-101.883 232.814-227.556 0-66.901-27.789-130.431-81.591-189.492-12.991-14.252-18.548-33.555-15.069-52.338l1.397-7.468c3.009-16.273 15.643-29.232 32.128-32.954l108.999-24.576c84.396-19.046 148.401-86.433 161.573-170.108l13.63-86.575c4.693-29.828-4.175-60.171-24.28-83.074s-49.441-36.082-80.316-36.082h-698.568c-30.876 0-60.212 13.179-80.316 36.082s-28.973 53.247-24.28 83.074l13.63 86.575c13.174 83.681 77.19 151.069 161.594 170.108l108.999 24.576c16.485 3.722 29.119 16.681 32.128 32.954l1.376 7.447c3.49 18.776-2.052 38.078-15.027 52.338-53.822 59.082-81.633 122.611-81.633 189.512 0 125.673 104.237 227.556 232.814 227.556v0zM512 820.364c-81.823 0-148.154-64.833-148.154-144.808 0-45.304 19.472-89.781 60.193-134.485l3.852-4.406c27.588-32.851 39.018-75.89 31.261-117.708l-1.376-7.447c-9.045-48.81-46.955-87.669-96.406-98.821l-108.999-24.576c-50.636-11.431-89.035-51.864-96.935-102.069l-13.63-86.575c-0.938-5.964 0.834-12.031 4.853-16.612s9.884-7.22 16.058-7.22h698.568c6.177 0 12.048 2.631 16.072 7.212s5.799 10.652 4.86 16.62l-13.63 86.575c-7.903 50.21-46.312 90.645-96.956 102.069l-108.999 24.576c-49.443 11.159-87.343 50.017-96.385 98.821l-1.397 7.468c-8.116 43.813 4.841 88.84 35.134 122.094 40.721 44.684 60.172 89.16 60.172 134.485 0 38.405-15.609 75.238-43.393 102.395s-65.468 42.413-104.761 42.413zM596.66 220.444c15.125 0.002 29.101-7.883 36.664-20.685s7.563-28.575 0-41.377c-7.563-12.802-21.54-20.687-36.664-20.685h-169.319c-15.125-0.002-29.101 7.883-36.664 20.685s-7.563 28.575 0 41.377c7.563 12.802 21.54 20.687 36.664 20.685h169.319z" />
<glyph unicode="&#xe90e;" glyph-name="other-message" d="M581.896 497.788c0 2.443 0 2.443-2.443 2.443v0c0 2.443-2.443 4.885-4.885 7.328v0c-2.443 2.443-2.443 4.885-4.885 7.328l-2.443 2.443c-2.443 2.443-2.443 2.443-4.885 4.885-2.443 0-2.443 2.443-4.885 2.443l-2.443 2.443c-2.443 0-4.885 2.443-7.328 2.443h-9.77c-7.328 0-17.098 0-24.425-2.443l-39.081-7.328c-26.868-7.328-41.523-34.195-34.195-58.621 4.885-14.655 14.655-26.868 26.868-31.753l-51.293-188.075c-4.885-14.655 0-29.31 7.328-41.523l4.885-4.885c12.213-12.213 29.31-19.54 48.851-14.655l46.408 12.213c26.868 7.328 41.523 34.195 34.195 58.621-4.885 14.655-14.655 26.868-29.31 31.753l48.851 185.633c7.328 9.77 7.328 19.54 4.885 29.31v0zM17.671 580.834c-73.276-273.564 87.931-554.455 361.495-627.731 141.667-36.638 283.334-12.213 398.133 58.621 14.655 7.328 24.425 24.425 24.425 41.523 0 26.868-21.983 48.851-48.851 48.851-9.77 0-19.54-2.443-29.31-9.77-92.816-56.178-207.615-75.719-319.972-43.966-222.271 58.621-351.725 285.776-293.104 508.047s285.776 351.725 508.047 293.104c222.271-58.621 351.725-285.776 293.104-508.047-9.77-39.081-26.868-73.276-46.408-107.471-4.885-7.328-7.328-17.098-7.328-26.868 0-26.868 21.983-48.851 48.851-48.851 17.098 0 34.195 9.77 41.523 24.425 24.425 41.523 43.966 85.489 56.178 131.897 78.161 273.564-85.489 554.455-359.052 627.731s-554.455-87.931-627.731-361.495zM608.764 644.34c7.328 31.753-9.77 63.506-41.523 70.833s-63.506-9.77-70.833-41.523c-7.328-31.753 9.77-63.506 41.523-70.833s63.506 12.213 70.833 41.523v0z" />
<glyph unicode="&#xe90f;" glyph-name="shop-address" d="M78 771c0 29.44 11.604 57.257 32.673 78.327s48.887 32.673 78.327 32.673h131.661v78h-131.661c-103.95 0-189-85.050-189-189v-131.661h78v131.661zM946 125c0-29.44-11.603-57.257-32.673-78.327-21.069-21.069-48.887-32.673-78.327-32.673h-131.661v-78h131.661c103.95 0 189 85.050 189 189v131.661h-78v-131.661zM189 14c-29.441 0-57.257 11.604-78.327 32.673-21.069 21.070-32.673 48.887-32.673 78.327v131.661h-78v-131.661c0-103.95 85.050-189 189-189h131.661v78h-131.661zM835 882c29.44 0 57.257-11.604 78.327-32.673s32.673-48.887 32.673-78.327v-131.661h78v131.661c0 103.95-85.050 189-189 189h-131.661v-78h131.661zM512 789.333c157.094 0 284.444-127.35 284.444-284.444 0-126.42-94.815-263.364-284.444-410.864-189.63 147.5-284.444 284.444-284.444 410.864 0 157.094 127.35 284.444 284.444 284.444v0zM512 726.123c-122.184 0-221.235-99.050-221.235-221.235 0-93.424 69.942-202.777 215.324-324.899l5.879-4.867 5.942 4.899c141.811 119.119 211.88 226.102 215.198 318.009l0.126 6.858c0 122.184-99.050 221.235-221.235 221.235zM512 631.309c69.82 0 126.42-56.6 126.42-126.42s-56.6-126.42-126.42-126.42c-69.82 0-126.42 56.6-126.42 126.42s56.6 126.42 126.42 126.42zM512 568.099c-34.91 0-63.21-28.3-63.21-63.21s28.3-63.21 63.21-63.21c34.91 0 63.21 28.3 63.21 63.21s-28.3 63.21-63.21 63.21z" />
<glyph unicode="&#xe910;" glyph-name="down" d="M520.228 231.776c7.514 1.74 14.648 5.538 20.504 11.393l341.925 341.925c16.662 16.662 16.662 43.677 0 60.34s-43.677 16.662-60.34 0l-311.884-311.884-311.835 311.835c-16.662 16.662-43.677 16.662-60.34 0s-16.662-43.677 0-60.34l341.925-341.925c10.861-10.861 26.12-14.642 40.044-11.345v0z" />
<glyph unicode="&#xe911;" glyph-name="extended-area" d="M1024 132.923c0-81.132-127.488-150.764-309.563-180.933l-25.206-3.86c-58.721-8.183-117.943-12.236-177.231-12.132-62.306 0-122.014 4.295-177.231 12.132l-25.206 3.86c-182.036 30.169-309.563 99.801-309.563 180.933 0 60.613 71.207 114.846 183.178 150.961l58.289-64.788-0.315-0.079-18.786-5.041c-3.025-0.835-6.044-1.688-9.058-2.56l-17.329-5.317-8.271-2.757-15.793-5.514c-2.502-0.939-4.996-1.898-7.483-2.875l-14.178-5.711c-45.292-19.298-71.483-39.778-71.483-56.32 0-15.754 23.631-35.052 64.827-53.406l13.588-5.79c4.726-1.89 9.649-3.781 14.73-5.671l15.754-5.553 16.857-5.435c5.79-1.772 11.737-3.505 17.841-5.199l18.786-5.041 19.692-4.726c16.778-3.86 34.462-7.483 52.972-10.634l22.528-3.663 23.276-3.269 23.946-2.875c85.373-9.238 171.493-9.238 256.866 0l23.946 2.875 23.237 3.269 22.567 3.663c18.511 3.151 36.194 6.774 52.972 10.634l19.692 4.726 18.786 5.041c3.025 0.835 6.044 1.688 9.058 2.56l17.329 5.317 8.271 2.757 15.793 5.514 7.483 2.875 14.178 5.711c45.292 19.298 71.483 39.778 71.483 56.32 0 15.754-23.631 35.052-64.827 53.406l-13.588 5.79c-4.726 1.89-9.649 3.781-14.73 5.671l-15.754 5.553-16.857 5.435c-5.79 1.772-11.737 3.505-17.841 5.199l-19.102 5.12 58.289 64.748c112.049-36.116 183.178-90.27 183.178-150.922zM512 960c195.764 0 354.462-158.698 354.462-354.462 0-157.538-118.154-328.192-354.462-512-236.308 183.808-354.462 354.462-354.462 512 0 195.764 158.698 354.462 354.462 354.462v0zM512 881.231c-152.261 0-275.692-123.432-275.692-275.692 0-116.421 87.158-252.692 268.327-404.874l7.326-6.065 7.404 6.105c176.719 148.441 264.034 281.758 268.17 396.288l0.158 8.546c0 152.261-123.432 275.692-275.692 275.692zM512 763.077c87.006 0 157.538-70.532 157.538-157.538s-70.532-157.538-157.538-157.538c-87.006 0-157.538 70.532-157.538 157.538s70.532 157.538 157.538 157.538zM512 684.308c-43.503 0-78.769-35.266-78.769-78.769s35.266-78.769 78.769-78.769c43.503 0 78.769 35.266 78.769 78.769s-35.266 78.769-78.769 78.769z" />
<glyph unicode="&#xe912;" glyph-name="maintenance-provider" d="M619.91-25.248l-469.019 0.114c-83.219 0-150.891 71.787-150.891 159.921v60.356c0 74.874 27.32 145.633 76.931 199.244 50.297 54.298 117.169 84.247 188.271 84.247h51.554c13.374 0 26.292-5.601 35.322-15.432l83.676-90.534 84.247 90.649c9.031 9.716 21.948 15.318 35.208 15.318h51.326c7.316 0 14.746-0.343 21.948-0.914 6.401-0.572 12.803-1.372 19.090-2.401 10.288-1.715 20.462-4.115 30.407-7.087 12.003-3.658 23.891-8.23 35.322-13.603 1.372-0.686 2.629-1.257 4.001-1.943 18.061-8.916 25.491-30.864 16.575-49.040-8.916-18.061-30.864-25.491-49.040-16.575-0.914 0.457-1.943 0.914-2.858 1.372-8.116 3.887-16.575 7.087-25.148 9.716-7.087 2.058-14.289 3.772-21.491 5.030-4.458 0.686-8.916 1.372-13.374 1.715-5.144 0.457-10.288 0.686-15.546 0.686h-40.123l-95.221-102.423c-9.031-9.716-21.948-15.318-35.208-15.318h-0.114c-13.374 0-26.177 5.601-35.322 15.432l-94.65 102.309h-40.695c-105.967 0-192.043-94.307-192.043-210.333v-60.356c0-47.896 34.865-86.762 77.732-86.762l469.019-0.114c20.233 0 36.58-16.347 36.58-36.58 0.114-20.347-16.347-36.694-36.465-36.694v0zM437.926 886.841c41.266 0 80.018-16.004 109.167-45.153s45.153-67.901 45.153-109.167c0-41.266-16.004-80.018-45.153-109.167s-67.901-45.153-109.167-45.153c-41.266 0-80.018 16.004-109.167 45.153s-45.153 67.901-45.153 109.167c0 41.266 16.004 80.018 45.153 109.167 29.149 29.035 67.901 45.153 109.167 45.153zM437.926 960c-125.628 0-227.479-101.851-227.479-227.479s101.851-227.479 227.479-227.479c125.628 0 227.479 101.851 227.479 227.479s-101.851 227.479-227.479 227.479zM767.829 393.474c53.155 0 103.109-20.69 140.717-58.299s58.299-87.562 58.299-140.717c0-53.155-20.69-103.109-58.299-140.717s-87.562-58.299-140.717-58.299c-53.155 0-103.109 20.69-140.717 58.299s-58.299 87.562-58.299 140.717c0 53.155 20.69 103.109 58.299 140.717s87.562 58.299 140.717 58.299zM767.829 450.629c-141.517 0-256.171-114.654-256.171-256.171s114.654-256.171 256.171-256.171c141.517 0 256.171 114.654 256.171 256.171s-114.768 256.171-256.171 256.171zM704.556 87.532v187.448c6.962 17.941 12.854 36.151 17.941 54.628l-34.008 8.569c-10.444-43.649-24.636-80.335-43.113-113.54 2.142-15.531 4.82-28.653 6.695-46.594 7.23 9.64 13.925 19.816 20.084 30.259v-120.77h32.402zM823.987 87.264v74.711c12.854-22.762 31.866-42.042 59.983-60.251l17.406 31.866c-25.439 12.318-44.987 27.314-58.377 45.791h56.234v29.992h-75.247v24.636h58.644v94.527h-150.762v-94.527h57.305v-24.636h-75.782v-29.992h54.628c-15.264-20.351-35.347-37.222-61.858-51.682 6.962-9.105 14.192-19.816 20.084-28.653 28.921 19.28 46.594 36.954 62.929 62.393v-74.176h34.812zM849.158 264.268h-83.816v34.276h83.816v-34.276z" />
<glyph unicode="&#xe913;" glyph-name="intention-information" d="M916.543 74.707c21.402 0.060 39.148-16.747 40.488-38.347s-14.189-40.519-35.431-43.164l-5.057-0.307h-809.086c-21.402-0.060-39.148 16.747-40.488 38.347s14.189 40.519 35.431 43.164l5.057 0.307h809.086zM840.691 903.111c69.82 0 126.42-57.236 126.42-127.84v-460.225c0-70.604-56.6-127.84-126.42-127.84h-657.383c-69.82 0-126.42 57.236-126.42 127.84v460.225c0 70.604 56.6 127.84 126.42 127.84h657.383zM840.691 821.293h-657.383c-22.928 0-42.278-17.242-45.157-40.244l-0.354-5.778v-460.225c0-23.186 17.050-42.753 39.797-45.665l5.714-0.358h657.383c22.928 0 42.278 17.242 45.157 40.244l0.354 5.778v460.225c0 23.186-17.050 42.753-39.797 45.665l-5.714 0.358zM316.96 586.068c20.392 0.007 37.602-15.336 40.151-35.795l0.304-5.114v-153.408c0.059-21.643-16.561-39.587-37.921-40.943s-40.068 14.348-42.684 35.829l-0.303 5.114v153.408c0 22.593 18.112 40.909 40.454 40.909v0zM512 688.34c20.392 0.007 37.602-15.336 40.151-35.795l0.304-5.114v-255.68c0.059-21.643-16.561-39.587-37.921-40.943s-40.068 14.348-42.684 35.829l-0.303 5.114v255.68c0 22.593 18.112 40.909 40.454 40.909zM714.272 586.068c20.392 0.007 37.602-15.336 40.151-35.795l0.304-5.114v-153.408c0.059-21.643-16.561-39.587-37.921-40.943s-40.068 14.348-42.684 35.829l-0.303 5.114v153.408c0 22.593 18.112 40.909 40.454 40.909v0z" />
<glyph unicode="&#xe914;" glyph-name="open" d="M520.228 664.224c7.514-1.74 14.648-5.538 20.504-11.393l341.925-341.925c16.662-16.662 16.662-43.677 0-60.34s-43.677-16.662-60.34 0l-311.884 311.884-311.835-311.835c-16.662-16.662-43.677-16.662-60.34 0s-16.662 43.677 0 60.34l341.925 341.925c10.861 10.861 26.12 14.642 40.044 11.345v0z" />
<glyph unicode="&#xe915;" glyph-name="phone" d="M378.308 154.742v-1.118c-6.057 0-10.498-0.466-13.107-0.466h-3.075c-64.543 0-116.537 51.622-118.338 116.071-0.994 31.65 10.436 62.275 32.116 85.291s51 36.495 82.651 37.396c0.311 0 3.479 0.186 3.758 0.186 24.786 0 48.547-7.765 68.984-22.643 28.668-10.126 57.647 4.038 85.943 41.993 28.171 37.676 34.104 67.555 17.611 88.769-5.87 4.224-11.523 9.256-17.114 15.219-0.994 0.963-1.895 1.988-2.764 3.075-18.512 20.903-29.134 47.366-29.973 74.637-1.801 65.412 49.758 120.078 114.891 121.91 0.311 0 3.354 0.062 3.634 0.062 54.79 0 103.243-38.825 115.17-92.372 9.629-29.724 34.228-147.473-84.079-305.63-109.455-146.572-215.68-162.381-256.307-162.381v0zM374.488 214.47c17.673-0.404 110.542 2.081 212.202 138.372 103.833 138.838 80.197 236.211 74.389 254.35-6.616 29.041-30.563 48.267-57.678 48.267-34.228-0.963-59.759-28.109-58.89-60.598 0.528-17.238 8.697-29.818 15.437-37.272 0.217-0.248 0.435-0.497 0.621-0.745 3.758-4.069 7.268-7.113 10.778-9.38 2.205-1.46 4.255-3.199 5.995-5.187 18.294-20.624 53.703-78.147-12.393-166.512-42.676-57.119-86.44-69.077-115.605-69.108-15.002 0-29.911 3.075-44.291 9.070-2.485 1.025-4.845 2.423-6.957 4.1-7.423 5.839-19.661 12.828-35.812 12.828-17.704-0.497-32.209-7.020-42.925-18.387-10.747-11.43-16.4-26.37-15.934-42.055 0.901-32.054 26.712-57.088 58.703-57.088 0.155 0 0.186-0.031 0.062-0.062 1.118 0.186 2.329 0.342 3.044 0.404 3.137-0.031 6.274-0.28 9.256-0.994v0zM511.618 30.719c-56.125 0-110.573 10.964-161.853 32.52-15.188 6.429-22.301 23.885-15.903 39.073 6.398 15.219 23.885 22.27 39.073 15.934 43.888-18.45 90.54-27.861 138.683-27.861 197.417 0 357.997 160.58 357.997 357.997 0 197.386-160.58 357.997-357.997 357.997s-357.997-160.611-357.997-358.028c0-67.493 18.884-133.216 54.603-190.087 8.728-13.977 4.535-32.364-9.411-41.123s-32.364-4.566-41.123 9.411c-41.745 66.437-63.766 143.124-63.766 221.799 0 230.278 187.354 417.663 417.663 417.663s417.663-187.354 417.663-417.663c0-230.278-187.354-417.632-417.632-417.632v0z" />
<glyph unicode="&#xe917;" d="M1.396 450.788c0-280.813 227.556-508.369 508.369-508.369s508.369 227.556 508.369 508.369c0 280.813-227.556 508.369-508.369 508.369-280.813-0.484-508.369-227.556-508.369-508.369z" />
<glyph unicode="&#xe918;" d="M185.861 424.643l35.828 52.289 168.004-133.628 409.116 346.659 34.375-34.375-441.070-450.27z" />
<glyph unicode="&#xe919;" glyph-name="contacts" d="M769.864 866.909h-450.536c-88.544-0.342-160.332-68.061-161.044-151.916v-91.325h-32.596c-17.899-0.133-32.392-13.81-32.597-30.761-0.054-8.191 3.367-16.059 9.496-21.838s14.452-8.984 23.101-8.896h32.596v-181.773h-32.596c-17.931 0-32.466-13.766-32.466-30.748s14.536-30.748 32.466-30.748h32.596v-91.325c0.696-83.866 72.489-151.601 161.044-151.943h450.536c88.555 0.342 160.348 68.078 161.044 151.943v485.633c0.176 84.494-71.828 153.214-161.044 153.697zM866.67 228.456c-0.302-50.457-43.527-91.235-96.806-91.325h-450.536c-53.279 0.089-96.504 40.868-96.806 91.325v91.325h32.596c11.599 0 22.317 5.86 28.117 15.374s5.8 21.234 0 30.748c-5.8 9.513-16.518 15.374-28.117 15.374h-32.596v181.773h32.596c17.892 0.148 32.377 13.817 32.596 30.761 0.055 8.191-3.367 16.059-9.496 21.838s-14.452 8.984-23.101 8.896h-32.596v91.325c0.302 50.457 43.527 91.235 96.806 91.325h450.536c53.279-0.089 96.504-40.868 96.806-91.325v-487.413zM648.327 539.16c17.665 22.87 27.488 51.127 27.936 80.36 0 71.078-55.881 128.698-124.814 128.698s-124.814-57.62-124.814-128.698c0.448-29.233 10.272-57.49 27.936-80.36-76.875-38.814-124.599-120.433-122.004-208.652 0.293-53.382 42.296-96.523 94.067-96.617h250.555c51.771 0.095 93.774 43.236 94.067 96.617 2.105 88.35-45.919 169.861-122.931 208.652v0zM551.45 683.623c34.305-0.128 62.026-28.884 61.943-64.257s-27.938-63.991-62.243-63.948c-34.305 0.043-62.093 28.729-62.093 64.102 0.007 17.047 6.588 33.391 18.291 45.432s27.569 18.789 44.102 18.758v-0.087zM676.264 299.008h-250.555c-17.386 0.156-31.461 14.617-31.674 32.544 0 88.011 57.756 160.72 128.552 160.72h54.945c70.796 0 128.552-72.709 128.552-160.72 0.786-8.53-2.042-16.994-7.757-23.215s-13.759-9.59-22.062-9.242v-0.087z" />
<glyph unicode="&#xe91a;" glyph-name="brand" d="M510.886 866.909c-230.623 0-417.795-187.172-417.795-417.795s187.172-417.795 417.795-417.795c230.623 0 417.795 187.172 417.795 417.795s-187.172 417.795-417.795 417.795zM510.886 87.025c-199.985 0-362.089 162.104-362.089 362.089s162.104 362.089 362.089 362.089c199.985 0 362.089-162.104 362.089-362.089s-162.104-362.089-362.089-362.089zM705.857 560.526c0 76.874-62.391 139.265-139.265 139.265-56.263 0-222.824 0-222.824 0-15.598 0-27.853-12.255-27.853-27.853v-445.648c0-15.598 12.255-27.853 27.853-27.853s27.853 12.255 27.853 27.853v194.971c0 0 84.673 0 158.205 0 2.228-4.456 5.014-9.47 7.242-13.926l111.412-192.743c7.799-13.369 24.511-17.826 37.88-10.027s17.826 24.511 10.027 37.88l-104.17 181.602c64.619 11.698 113.64 68.518 113.64 136.48zM566.592 476.967c-46.236 0-194.971 0-194.971 0v167.118h194.971c46.236 0 83.559-37.323 83.559-83.559s-37.323-83.559-83.559-83.559z" />
</font>
</defs>
</svg>
